# Vectary OBJ Export units=mm
mtllib Project Name.mtl
o 000_Box_1
g Box_1
usemtl Cool Touch_9458c82a-7069-4630-9e7e-990ed6c14400
v 220.773 400.845 24.155
v 215.000 400.000 23.000
v 222.071 400.586 23.000
v 215.000 400.586 24.414
v -15.000 400.000 23.000
v -15.000 400.586 24.414
v -22.071 400.586 23.000
v -20.774 400.845 24.155
v 215.000 400.000 -23.000
v 222.071 400.586 -23.000
v -15.000 400.000 -23.000
v -22.071 400.586 -23.000
v 215.000 400.586 -24.414
v 220.773 400.845 -24.155
v -15.000 400.586 -24.414
v -20.774 400.845 -24.155
v -25.000 402.000 -23.000
v -22.071 402.000 -24.414
v -25.000 402.000 23.000
v -22.071 402.000 24.414
v -25.000 448.000 -23.000
v -22.071 448.000 -24.414
v -25.000 448.000 23.000
v -22.071 448.000 24.414
v -22.071 449.414 -23.000
v -20.774 449.155 -24.155
v -22.071 449.414 23.000
v -20.774 449.155 24.155
v -15.000 402.000 25.000
v 215.000 402.000 25.000
v 222.071 402.000 24.414
v -15.000 448.000 25.000
v 215.000 448.000 25.000
v 222.071 448.000 24.414
v -15.000 449.414 24.414
v 215.000 449.414 24.414
v 220.773 449.155 24.155
v 215.000 402.000 -25.000
v 222.071 402.000 -24.414
v -15.000 402.000 -25.000
v 215.000 448.000 -25.000
v 222.071 448.000 -24.414
v -15.000 448.000 -25.000
v 215.000 449.414 -24.414
v 220.773 449.155 -24.155
v -15.000 449.414 -24.414
v 225.000 402.000 23.000
v 225.000 402.000 -23.000
v 225.000 448.000 23.000
v 225.000 448.000 -23.000
v 222.071 449.414 23.000
v 222.071 449.414 -23.000
v -15.000 450.000 23.000
v 215.000 450.000 23.000
v -15.000 450.000 -23.000
v 215.000 450.000 -23.000
vt 0.00000 0.00000
vt 0.04000 0.04000
vt 0.00000 0.04000
vt 0.04000 0.00000
vt 0.96000 0.04000
vt 0.96000 0.00000
vt 1.00000 0.04000
vt 1.00000 0.00000
vt 0.04000 0.96000
vt 0.00000 0.96000
vt 0.96000 0.96000
vt 1.00000 0.96000
vt 0.04000 1.00000
vt 0.00000 1.00000
vt 0.96000 1.00000
vt 1.00000 1.00000
vt 0.00000 0.00000
vt 0.04000 0.04000
vt 0.00000 0.04000
vt 0.04000 0.00000
vt 0.96000 0.04000
vt 0.96000 0.00000
vt 1.00000 0.04000
vt 1.00000 0.00000
vt 0.04000 0.96000
vt 0.00000 0.96000
vt 0.96000 0.96000
vt 1.00000 0.96000
vt 0.04000 1.00000
vt 0.00000 1.00000
vt 0.96000 1.00000
vt 1.00000 1.00000
vt 0.00000 0.00000
vt 0.04000 0.04000
vt 0.00000 0.04000
vt 0.04000 0.00000
vt 0.96000 0.04000
vt 0.96000 0.00000
vt 1.00000 0.04000
vt 1.00000 0.00000
vt 0.04000 0.96000
vt 0.00000 0.96000
vt 0.96000 0.96000
vt 1.00000 0.96000
vt 0.04000 1.00000
vt 0.00000 1.00000
vt 0.96000 1.00000
vt 1.00000 1.00000
vt 0.00000 0.00000
vt 0.04000 0.04000
vt 0.00000 0.04000
vt 0.04000 0.00000
vt 0.96000 0.04000
vt 0.96000 0.00000
vt 1.00000 0.04000
vt 1.00000 0.00000
vt 0.04000 0.96000
vt 0.00000 0.96000
vt 0.96000 0.96000
vt 1.00000 0.96000
vt 0.04000 1.00000
vt 0.00000 1.00000
vt 0.96000 1.00000
vt 1.00000 1.00000
vt 0.00000 0.00000
vt 0.04000 0.04000
vt 0.00000 0.04000
vt 0.04000 0.00000
vt 0.96000 0.04000
vt 0.96000 0.00000
vt 1.00000 0.04000
vt 1.00000 0.00000
vt 0.04000 0.96000
vt 0.00000 0.96000
vt 0.96000 0.96000
vt 1.00000 0.96000
vt 0.04000 1.00000
vt 0.00000 1.00000
vt 0.96000 1.00000
vt 1.00000 1.00000
vt 0.00000 0.00000
vt 0.04000 0.04000
vt 0.00000 0.04000
vt 0.04000 0.00000
vt 0.96000 0.04000
vt 0.96000 0.00000
vt 1.00000 0.04000
vt 1.00000 0.00000
vt 0.04000 0.96000
vt 0.00000 0.96000
vt 0.96000 0.96000
vt 1.00000 0.96000
vt 0.04000 1.00000
vt 0.00000 1.00000
vt 0.96000 1.00000
vt 1.00000 1.00000
vn 0.14003 -0.70014 0.70014
vn 0.00000 -1.00000 0.00000
vn 0.19612 -0.98058 0.00000
vn 0.00000 -0.70711 0.70711
vn 0.00000 -0.70711 0.70711
vn 0.00000 -1.00000 0.00000
vn 0.00000 -1.00000 0.00000
vn 0.00000 -0.70711 0.70711
vn 0.00000 -0.70711 0.70711
vn -0.19612 -0.98058 0.00000
vn 0.00000 -1.00000 0.00000
vn -0.14003 -0.70014 0.70014
vn 0.19612 -0.98058 0.00000
vn 0.00000 -1.00000 0.00000
vn 0.19612 -0.98058 0.00000
vn 0.00000 -1.00000 0.00000
vn 0.00000 -1.00000 0.00000
vn 0.00000 -1.00000 0.00000
vn 0.00000 -1.00000 0.00000
vn 0.00000 -1.00000 0.00000
vn 0.00000 -1.00000 0.00000
vn -0.19612 -0.98058 0.00000
vn 0.00000 -1.00000 0.00000
vn -0.19612 -0.98058 0.00000
vn 0.19612 -0.98058 0.00000
vn -0.00000 -0.70711 -0.70711
vn 0.14003 -0.70014 -0.70014
vn 0.00000 -1.00000 0.00000
vn 0.00000 -1.00000 0.00000
vn -0.00000 -0.70711 -0.70711
vn -0.00000 -0.70711 -0.70711
vn 0.00000 -1.00000 0.00000
vn 0.00000 -1.00000 0.00000
vn -0.14003 -0.70014 -0.70014
vn -0.00000 -0.70711 -0.70711
vn -0.19612 -0.98058 0.00000
vn -0.14003 -0.70014 -0.70014
vn -1.00000 0.00000 0.00000
vn -0.19612 -0.00000 -0.98058
vn -0.19612 -0.98058 0.00000
vn -0.19612 -0.98058 0.00000
vn -1.00000 0.00000 0.00000
vn -1.00000 0.00000 0.00000
vn -0.19612 -0.98058 0.00000
vn -0.19612 -0.98058 0.00000
vn -0.19612 0.00000 0.98058
vn -1.00000 0.00000 0.00000
vn -0.14003 -0.70014 0.70014
vn -0.19612 -0.00000 -0.98058
vn -1.00000 0.00000 0.00000
vn -0.19612 -0.00000 -0.98058
vn -1.00000 0.00000 0.00000
vn -1.00000 0.00000 0.00000
vn -1.00000 0.00000 0.00000
vn -1.00000 0.00000 0.00000
vn -1.00000 0.00000 0.00000
vn -1.00000 0.00000 0.00000
vn -0.19612 0.00000 0.98058
vn -1.00000 0.00000 0.00000
vn -0.19612 0.00000 0.98058
vn -0.19612 -0.00000 -0.98058
vn -0.19612 0.98058 -0.00000
vn -0.14003 0.70014 -0.70014
vn -1.00000 0.00000 0.00000
vn -1.00000 0.00000 0.00000
vn -0.19612 0.98058 -0.00000
vn -0.19612 0.98058 -0.00000
vn -1.00000 0.00000 0.00000
vn -1.00000 0.00000 0.00000
vn -0.14003 0.70014 0.70014
vn -0.19612 0.98058 -0.00000
vn -0.19612 0.00000 0.98058
vn -0.14003 -0.70014 0.70014
vn 0.00000 0.00000 1.00000
vn -0.19612 0.00000 0.98058
vn 0.00000 -0.70711 0.70711
vn 0.00000 -0.70711 0.70711
vn 0.00000 0.00000 1.00000
vn 0.00000 0.00000 1.00000
vn 0.00000 -0.70711 0.70711
vn 0.00000 -0.70711 0.70711
vn 0.19612 0.00000 0.98058
vn 0.00000 0.00000 1.00000
vn 0.14003 -0.70014 0.70014
vn -0.19612 0.00000 0.98058
vn 0.00000 0.00000 1.00000
vn -0.19612 0.00000 0.98058
vn 0.00000 0.00000 1.00000
vn 0.00000 0.00000 1.00000
vn 0.00000 0.00000 1.00000
vn 0.00000 0.00000 1.00000
vn 0.00000 0.00000 1.00000
vn 0.00000 0.00000 1.00000
vn 0.19612 0.00000 0.98058
vn 0.00000 0.00000 1.00000
vn 0.19612 0.00000 0.98058
vn -0.19612 0.00000 0.98058
vn 0.00000 0.70711 0.70711
vn -0.14003 0.70014 0.70014
vn 0.00000 0.00000 1.00000
vn 0.00000 0.00000 1.00000
vn 0.00000 0.70711 0.70711
vn 0.00000 0.70711 0.70711
vn 0.00000 0.00000 1.00000
vn 0.00000 0.00000 1.00000
vn 0.14003 0.70014 0.70014
vn 0.00000 0.70711 0.70711
vn 0.19612 0.00000 0.98058
vn 0.14003 -0.70014 -0.70014
vn -0.00000 -0.00000 -1.00000
vn 0.19612 -0.00000 -0.98058
vn -0.00000 -0.70711 -0.70711
vn -0.00000 -0.70711 -0.70711
vn -0.00000 -0.00000 -1.00000
vn -0.00000 -0.00000 -1.00000
vn -0.00000 -0.70711 -0.70711
vn -0.00000 -0.70711 -0.70711
vn -0.19612 -0.00000 -0.98058
vn -0.00000 -0.00000 -1.00000
vn -0.14003 -0.70014 -0.70014
vn 0.19612 -0.00000 -0.98058
vn -0.00000 -0.00000 -1.00000
vn 0.19612 -0.00000 -0.98058
vn -0.00000 -0.00000 -1.00000
vn -0.00000 -0.00000 -1.00000
vn -0.00000 -0.00000 -1.00000
vn -0.00000 -0.00000 -1.00000
vn -0.00000 -0.00000 -1.00000
vn -0.00000 -0.00000 -1.00000
vn -0.19612 -0.00000 -0.98058
vn -0.00000 -0.00000 -1.00000
vn -0.19612 -0.00000 -0.98058
vn 0.19612 -0.00000 -0.98058
vn -0.00000 0.70711 -0.70711
vn 0.14003 0.70014 -0.70014
vn -0.00000 -0.00000 -1.00000
vn -0.00000 -0.00000 -1.00000
vn -0.00000 0.70711 -0.70711
vn -0.00000 0.70711 -0.70711
vn -0.00000 -0.00000 -1.00000
vn -0.00000 -0.00000 -1.00000
vn -0.14003 0.70014 -0.70014
vn -0.00000 0.70711 -0.70711
vn -0.19612 -0.00000 -0.98058
vn 0.14003 -0.70014 0.70014
vn 1.00000 -0.00000 -0.00000
vn 0.19612 0.00000 0.98058
vn 0.19612 -0.98058 0.00000
vn 0.19612 -0.98058 0.00000
vn 1.00000 -0.00000 -0.00000
vn 1.00000 -0.00000 -0.00000
vn 0.19612 -0.98058 0.00000
vn 0.19612 -0.98058 0.00000
vn 0.19612 -0.00000 -0.98058
vn 1.00000 -0.00000 -0.00000
vn 0.14003 -0.70014 -0.70014
vn 0.19612 0.00000 0.98058
vn 1.00000 -0.00000 -0.00000
vn 0.19612 0.00000 0.98058
vn 1.00000 -0.00000 -0.00000
vn 1.00000 -0.00000 -0.00000
vn 1.00000 -0.00000 -0.00000
vn 1.00000 -0.00000 -0.00000
vn 1.00000 -0.00000 -0.00000
vn 1.00000 -0.00000 -0.00000
vn 0.19612 -0.00000 -0.98058
vn 1.00000 -0.00000 -0.00000
vn 0.19612 -0.00000 -0.98058
vn 0.19612 0.00000 0.98058
vn 0.19612 0.98058 -0.00000
vn 0.14003 0.70014 0.70014
vn 1.00000 -0.00000 -0.00000
vn 1.00000 -0.00000 -0.00000
vn 0.19612 0.98058 -0.00000
vn 0.19612 0.98058 -0.00000
vn 1.00000 -0.00000 -0.00000
vn 1.00000 -0.00000 -0.00000
vn 0.14003 0.70014 -0.70014
vn 0.19612 0.98058 -0.00000
vn 0.19612 -0.00000 -0.98058
vn -0.14003 0.70014 0.70014
vn -0.00000 1.00000 -0.00000
vn -0.19612 0.98058 -0.00000
vn 0.00000 0.70711 0.70711
vn 0.00000 0.70711 0.70711
vn -0.00000 1.00000 -0.00000
vn -0.00000 1.00000 -0.00000
vn 0.00000 0.70711 0.70711
vn 0.00000 0.70711 0.70711
vn 0.19612 0.98058 -0.00000
vn -0.00000 1.00000 -0.00000
vn 0.14003 0.70014 0.70014
vn -0.19612 0.98058 -0.00000
vn -0.00000 1.00000 -0.00000
vn -0.19612 0.98058 -0.00000
vn -0.00000 1.00000 -0.00000
vn -0.00000 1.00000 -0.00000
vn -0.00000 1.00000 -0.00000
vn -0.00000 1.00000 -0.00000
vn -0.00000 1.00000 -0.00000
vn -0.00000 1.00000 -0.00000
vn 0.19612 0.98058 -0.00000
vn -0.00000 1.00000 -0.00000
vn 0.19612 0.98058 -0.00000
vn -0.19612 0.98058 -0.00000
vn -0.00000 0.70711 -0.70711
vn -0.14003 0.70014 -0.70014
vn -0.00000 1.00000 -0.00000
vn -0.00000 1.00000 -0.00000
vn -0.00000 0.70711 -0.70711
vn -0.00000 0.70711 -0.70711
vn -0.00000 1.00000 -0.00000
vn -0.00000 1.00000 -0.00000
vn 0.14003 0.70014 -0.70014
vn -0.00000 0.70711 -0.70711
vn 0.19612 0.98058 -0.00000
f 3/3/3 1/1/1 4/4/4 2/2/2 
f 2/2/7 4/4/5 6/6/8 5/5/6 
f 5/5/11 6/6/9 8/8/12 7/7/10 
f 10/10/15 3/3/13 2/2/16 9/9/14 
f 9/9/19 2/2/17 5/5/20 11/11/18 
f 11/11/23 5/5/21 7/7/24 12/12/22 
f 14/14/27 10/10/25 9/9/28 13/13/26 
f 13/13/31 9/9/29 11/11/32 15/15/30 
f 15/15/35 11/11/33 12/12/36 16/16/34 
f 18/19/39 16/17/37 12/20/40 17/18/38 
f 17/18/43 12/20/41 7/22/44 19/21/42 
f 19/21/47 7/22/45 8/24/48 20/23/46 
f 22/26/51 18/19/49 17/18/52 21/25/50 
f 21/25/55 17/18/53 19/21/56 23/27/54 
f 23/27/59 19/21/57 20/23/60 24/28/58 
f 26/30/63 22/26/61 21/25/64 25/29/62 
f 25/29/67 21/25/65 23/27/68 27/31/66 
f 27/31/71 23/27/69 24/28/72 28/32/70 
f 20/35/75 8/33/73 6/36/76 29/34/74 
f 29/34/79 6/36/77 4/38/80 30/37/78 
f 30/37/83 4/38/81 1/40/84 31/39/82 
f 24/42/87 20/35/85 29/34/88 32/41/86 
f 32/41/91 29/34/89 30/37/92 33/43/90 
f 33/43/95 30/37/93 31/39/96 34/44/94 
f 28/46/99 24/42/97 32/41/100 35/45/98 
f 35/45/103 32/41/101 33/43/104 36/47/102 
f 36/47/107 33/43/105 34/44/108 37/48/106 
f 39/51/111 14/49/109 13/52/112 38/50/110 
f 38/50/115 13/52/113 15/54/116 40/53/114 
f 40/53/119 15/54/117 16/56/120 18/55/118 
f 42/58/123 39/51/121 38/50/124 41/57/122 
f 41/57/127 38/50/125 40/53/128 43/59/126 
f 43/59/131 40/53/129 18/55/132 22/60/130 
f 45/62/135 42/58/133 41/57/136 44/61/134 
f 44/61/139 41/57/137 43/59/140 46/63/138 
f 46/63/143 43/59/141 22/60/144 26/64/142 
f 31/67/147 1/65/145 3/68/148 47/66/146 
f 47/66/151 3/68/149 10/70/152 48/69/150 
f 48/69/155 10/70/153 14/72/156 39/71/154 
f 34/74/159 31/67/157 47/66/160 49/73/158 
f 49/73/163 47/66/161 48/69/164 50/75/162 
f 50/75/167 48/69/165 39/71/168 42/76/166 
f 37/78/171 34/74/169 49/73/172 51/77/170 
f 51/77/175 49/73/173 50/75/176 52/79/174 
f 52/79/179 50/75/177 42/76/180 45/80/178 
f 27/83/183 28/81/181 35/84/184 53/82/182 
f 53/82/187 35/84/185 36/86/188 54/85/186 
f 54/85/191 36/86/189 37/88/192 51/87/190 
f 25/90/195 27/83/193 53/82/196 55/89/194 
f 55/89/199 53/82/197 54/85/200 56/91/198 
f 56/91/203 54/85/201 51/87/204 52/92/202 
f 26/94/207 25/90/205 55/89/208 46/93/206 
f 46/93/211 55/89/209 56/91/212 44/95/210 
f 44/95/215 56/91/213 52/92/216 45/96/214 
o 001_Box
g Box
usemtl Paradise Island_d8bb7dfc-6787-4024-bf14-196d2f8ad022
v 24.155 6.762 24.155
v 23.000 0.000 23.000
v 24.414 4.686 23.000
v 23.000 4.686 24.414
v -23.000 0.000 23.000
v -23.000 4.686 24.414
v -24.414 4.686 23.000
v -24.155 6.762 24.155
v 23.000 -0.000 -23.000
v 24.414 4.686 -23.000
v -23.000 -0.000 -23.000
v -24.414 4.686 -23.000
v 23.000 4.686 -24.414
v 24.155 6.762 -24.155
v -23.000 4.686 -24.414
v -24.155 6.762 -24.155
v -25.000 16.000 -23.000
v -24.414 16.000 -24.414
v -25.000 16.000 23.000
v -24.414 16.000 24.414
v -25.000 384.000 -23.000
v -24.414 384.000 -24.414
v -25.000 384.000 23.000
v -24.414 384.000 24.414
v -24.414 395.314 -23.000
v -24.155 393.238 -24.155
v -24.414 395.314 23.000
v -24.155 393.238 24.155
v -23.000 16.000 25.000
v 23.000 16.000 25.000
v 24.414 16.000 24.414
v -23.000 384.000 25.000
v 23.000 384.000 25.000
v 24.414 384.000 24.414
v -23.000 395.314 24.414
v 23.000 395.314 24.414
v 24.155 393.238 24.155
v 23.000 16.000 -25.000
v 24.414 16.000 -24.414
v -23.000 16.000 -25.000
v 23.000 384.000 -25.000
v 24.414 384.000 -24.414
v -23.000 384.000 -25.000
v 23.000 395.314 -24.414
v 24.155 393.238 -24.155
v -23.000 395.314 -24.414
v 25.000 16.000 23.000
v 25.000 16.000 -23.000
v 25.000 384.000 23.000
v 25.000 384.000 -23.000
v 24.414 395.314 23.000
v 24.414 395.314 -23.000
v -23.000 400.000 23.000
v 23.000 400.000 23.000
v -23.000 400.000 -23.000
v 23.000 400.000 -23.000
vt 0.00000 0.00000
vt 0.04000 0.04000
vt 0.00000 0.04000
vt 0.04000 0.00000
vt 0.96000 0.04000
vt 0.96000 0.00000
vt 1.00000 0.04000
vt 1.00000 0.00000
vt 0.04000 0.96000
vt 0.00000 0.96000
vt 0.96000 0.96000
vt 1.00000 0.96000
vt 0.04000 1.00000
vt 0.00000 1.00000
vt 0.96000 1.00000
vt 1.00000 1.00000
vt 0.00000 0.00000
vt 0.04000 0.04000
vt 0.00000 0.04000
vt 0.04000 0.00000
vt 0.96000 0.04000
vt 0.96000 0.00000
vt 1.00000 0.04000
vt 1.00000 0.00000
vt 0.04000 0.96000
vt 0.00000 0.96000
vt 0.96000 0.96000
vt 1.00000 0.96000
vt 0.04000 1.00000
vt 0.00000 1.00000
vt 0.96000 1.00000
vt 1.00000 1.00000
vt 0.00000 0.00000
vt 0.04000 0.04000
vt 0.00000 0.04000
vt 0.04000 0.00000
vt 0.96000 0.04000
vt 0.96000 0.00000
vt 1.00000 0.04000
vt 1.00000 0.00000
vt 0.04000 0.96000
vt 0.00000 0.96000
vt 0.96000 0.96000
vt 1.00000 0.96000
vt 0.04000 1.00000
vt 0.00000 1.00000
vt 0.96000 1.00000
vt 1.00000 1.00000
vt 0.00000 0.00000
vt 0.04000 0.04000
vt 0.00000 0.04000
vt 0.04000 0.00000
vt 0.96000 0.04000
vt 0.96000 0.00000
vt 1.00000 0.04000
vt 1.00000 0.00000
vt 0.04000 0.96000
vt 0.00000 0.96000
vt 0.96000 0.96000
vt 1.00000 0.96000
vt 0.04000 1.00000
vt 0.00000 1.00000
vt 0.96000 1.00000
vt 1.00000 1.00000
vt 0.00000 0.00000
vt 0.04000 0.04000
vt 0.00000 0.04000
vt 0.04000 0.00000
vt 0.96000 0.04000
vt 0.96000 0.00000
vt 1.00000 0.04000
vt 1.00000 0.00000
vt 0.04000 0.96000
vt 0.00000 0.96000
vt 0.96000 0.96000
vt 1.00000 0.96000
vt 0.04000 1.00000
vt 0.00000 1.00000
vt 0.96000 1.00000
vt 1.00000 1.00000
vt 0.00000 0.00000
vt 0.04000 0.04000
vt 0.00000 0.04000
vt 0.04000 0.00000
vt 0.96000 0.04000
vt 0.96000 0.00000
vt 1.00000 0.04000
vt 1.00000 0.00000
vt 0.04000 0.96000
vt 0.00000 0.96000
vt 0.96000 0.96000
vt 1.00000 0.96000
vt 0.04000 1.00000
vt 0.00000 1.00000
vt 0.96000 1.00000
vt 1.00000 1.00000
vn 0.70436 -0.08805 0.70436
vn 0.00000 -1.00000 0.00000
vn 0.99228 -0.12403 0.00000
vn 0.00000 -0.12403 0.99228
vn 0.00000 -0.12403 0.99228
vn 0.00000 -1.00000 0.00000
vn 0.00000 -1.00000 0.00000
vn 0.00000 -0.12403 0.99228
vn 0.00000 -0.12403 0.99228
vn -0.99228 -0.12403 0.00000
vn 0.00000 -1.00000 0.00000
vn -0.70436 -0.08805 0.70436
vn 0.99228 -0.12403 0.00000
vn 0.00000 -1.00000 0.00000
vn 0.99228 -0.12403 0.00000
vn 0.00000 -1.00000 0.00000
vn 0.00000 -1.00000 0.00000
vn 0.00000 -1.00000 0.00000
vn 0.00000 -1.00000 0.00000
vn 0.00000 -1.00000 0.00000
vn 0.00000 -1.00000 0.00000
vn -0.99228 -0.12403 0.00000
vn 0.00000 -1.00000 0.00000
vn -0.99228 -0.12403 0.00000
vn 0.99228 -0.12403 0.00000
vn 0.00000 -0.12403 -0.99228
vn 0.70436 -0.08805 -0.70436
vn 0.00000 -1.00000 0.00000
vn 0.00000 -1.00000 0.00000
vn 0.00000 -0.12403 -0.99228
vn 0.00000 -0.12403 -0.99228
vn 0.00000 -1.00000 0.00000
vn 0.00000 -1.00000 0.00000
vn -0.70436 -0.08805 -0.70436
vn 0.00000 -0.12403 -0.99228
vn -0.99228 -0.12403 0.00000
vn -0.70436 -0.08805 -0.70436
vn -1.00000 0.00000 0.00000
vn -0.70711 -0.00000 -0.70711
vn -0.99228 -0.12403 0.00000
vn -0.99228 -0.12403 0.00000
vn -1.00000 0.00000 0.00000
vn -1.00000 0.00000 0.00000
vn -0.99228 -0.12403 0.00000
vn -0.99228 -0.12403 0.00000
vn -0.70711 0.00000 0.70711
vn -1.00000 0.00000 0.00000
vn -0.70436 -0.08805 0.70436
vn -0.70711 -0.00000 -0.70711
vn -1.00000 0.00000 0.00000
vn -0.70711 -0.00000 -0.70711
vn -1.00000 0.00000 0.00000
vn -1.00000 0.00000 0.00000
vn -1.00000 0.00000 0.00000
vn -1.00000 0.00000 0.00000
vn -1.00000 0.00000 0.00000
vn -1.00000 0.00000 0.00000
vn -0.70711 0.00000 0.70711
vn -1.00000 0.00000 0.00000
vn -0.70711 0.00000 0.70711
vn -0.70711 -0.00000 -0.70711
vn -0.99228 0.12403 -0.00000
vn -0.70436 0.08805 -0.70436
vn -1.00000 0.00000 0.00000
vn -1.00000 0.00000 0.00000
vn -0.99228 0.12403 -0.00000
vn -0.99228 0.12403 -0.00000
vn -1.00000 0.00000 0.00000
vn -1.00000 0.00000 0.00000
vn -0.70436 0.08805 0.70436
vn -0.99228 0.12403 -0.00000
vn -0.70711 0.00000 0.70711
vn -0.70436 -0.08805 0.70436
vn 0.00000 0.00000 1.00000
vn -0.70711 0.00000 0.70711
vn 0.00000 -0.12403 0.99228
vn 0.00000 -0.12403 0.99228
vn 0.00000 0.00000 1.00000
vn 0.00000 0.00000 1.00000
vn 0.00000 -0.12403 0.99228
vn 0.00000 -0.12403 0.99228
vn 0.70711 0.00000 0.70711
vn 0.00000 0.00000 1.00000
vn 0.70436 -0.08805 0.70436
vn -0.70711 0.00000 0.70711
vn 0.00000 0.00000 1.00000
vn -0.70711 0.00000 0.70711
vn 0.00000 0.00000 1.00000
vn 0.00000 0.00000 1.00000
vn 0.00000 0.00000 1.00000
vn 0.00000 0.00000 1.00000
vn 0.00000 0.00000 1.00000
vn 0.00000 0.00000 1.00000
vn 0.70711 0.00000 0.70711
vn 0.00000 0.00000 1.00000
vn 0.70711 0.00000 0.70711
vn -0.70711 0.00000 0.70711
vn 0.00000 0.12403 0.99228
vn -0.70436 0.08805 0.70436
vn 0.00000 0.00000 1.00000
vn 0.00000 0.00000 1.00000
vn 0.00000 0.12403 0.99228
vn 0.00000 0.12403 0.99228
vn 0.00000 0.00000 1.00000
vn 0.00000 0.00000 1.00000
vn 0.70436 0.08805 0.70436
vn 0.00000 0.12403 0.99228
vn 0.70711 0.00000 0.70711
vn 0.70436 -0.08805 -0.70436
vn 0.00000 -0.00000 -1.00000
vn 0.70711 -0.00000 -0.70711
vn 0.00000 -0.12403 -0.99228
vn 0.00000 -0.12403 -0.99228
vn 0.00000 -0.00000 -1.00000
vn 0.00000 -0.00000 -1.00000
vn 0.00000 -0.12403 -0.99228
vn 0.00000 -0.12403 -0.99228
vn -0.70711 -0.00000 -0.70711
vn 0.00000 -0.00000 -1.00000
vn -0.70436 -0.08805 -0.70436
vn 0.70711 -0.00000 -0.70711
vn 0.00000 -0.00000 -1.00000
vn 0.70711 -0.00000 -0.70711
vn 0.00000 -0.00000 -1.00000
vn 0.00000 -0.00000 -1.00000
vn 0.00000 -0.00000 -1.00000
vn 0.00000 -0.00000 -1.00000
vn 0.00000 -0.00000 -1.00000
vn 0.00000 -0.00000 -1.00000
vn -0.70711 -0.00000 -0.70711
vn 0.00000 -0.00000 -1.00000
vn -0.70711 -0.00000 -0.70711
vn 0.70711 -0.00000 -0.70711
vn 0.00000 0.12403 -0.99228
vn 0.70436 0.08805 -0.70436
vn 0.00000 -0.00000 -1.00000
vn 0.00000 -0.00000 -1.00000
vn 0.00000 0.12403 -0.99228
vn 0.00000 0.12403 -0.99228
vn 0.00000 -0.00000 -1.00000
vn 0.00000 -0.00000 -1.00000
vn -0.70436 0.08805 -0.70436
vn 0.00000 0.12403 -0.99228
vn -0.70711 -0.00000 -0.70711
vn 0.70436 -0.08805 0.70436
vn 1.00000 0.00000 0.00000
vn 0.70711 0.00000 0.70711
vn 0.99228 -0.12403 0.00000
vn 0.99228 -0.12403 0.00000
vn 1.00000 0.00000 0.00000
vn 1.00000 0.00000 0.00000
vn 0.99228 -0.12403 0.00000
vn 0.99228 -0.12403 0.00000
vn 0.70711 -0.00000 -0.70711
vn 1.00000 0.00000 0.00000
vn 0.70436 -0.08805 -0.70436
vn 0.70711 0.00000 0.70711
vn 1.00000 0.00000 0.00000
vn 0.70711 0.00000 0.70711
vn 1.00000 0.00000 0.00000
vn 1.00000 0.00000 0.00000
vn 1.00000 0.00000 0.00000
vn 1.00000 0.00000 0.00000
vn 1.00000 0.00000 0.00000
vn 1.00000 0.00000 0.00000
vn 0.70711 -0.00000 -0.70711
vn 1.00000 0.00000 0.00000
vn 0.70711 -0.00000 -0.70711
vn 0.70711 0.00000 0.70711
vn 0.99228 0.12403 -0.00000
vn 0.70436 0.08805 0.70436
vn 1.00000 0.00000 0.00000
vn 1.00000 0.00000 0.00000
vn 0.99228 0.12403 -0.00000
vn 0.99228 0.12403 -0.00000
vn 1.00000 0.00000 0.00000
vn 1.00000 0.00000 0.00000
vn 0.70436 0.08805 -0.70436
vn 0.99228 0.12403 -0.00000
vn 0.70711 -0.00000 -0.70711
vn -0.70436 0.08805 0.70436
vn 0.00000 1.00000 -0.00000
vn -0.99228 0.12403 -0.00000
vn 0.00000 0.12403 0.99228
vn 0.00000 0.12403 0.99228
vn 0.00000 1.00000 -0.00000
vn 0.00000 1.00000 -0.00000
vn 0.00000 0.12403 0.99228
vn 0.00000 0.12403 0.99228
vn 0.99228 0.12403 -0.00000
vn 0.00000 1.00000 -0.00000
vn 0.70436 0.08805 0.70436
vn -0.99228 0.12403 -0.00000
vn 0.00000 1.00000 -0.00000
vn -0.99228 0.12403 -0.00000
vn 0.00000 1.00000 -0.00000
vn 0.00000 1.00000 -0.00000
vn 0.00000 1.00000 -0.00000
vn 0.00000 1.00000 -0.00000
vn 0.00000 1.00000 -0.00000
vn 0.00000 1.00000 -0.00000
vn 0.99228 0.12403 -0.00000
vn 0.00000 1.00000 -0.00000
vn 0.99228 0.12403 -0.00000
vn -0.99228 0.12403 -0.00000
vn 0.00000 0.12403 -0.99228
vn -0.70436 0.08805 -0.70436
vn 0.00000 1.00000 -0.00000
vn 0.00000 1.00000 -0.00000
vn 0.00000 0.12403 -0.99228
vn 0.00000 0.12403 -0.99228
vn 0.00000 1.00000 -0.00000
vn 0.00000 1.00000 -0.00000
vn 0.70436 0.08805 -0.70436
vn 0.00000 0.12403 -0.99228
vn 0.99228 0.12403 -0.00000
f 59/99/219 57/97/217 60/100/220 58/98/218 
f 58/98/223 60/100/221 62/102/224 61/101/222 
f 61/101/227 62/102/225 64/104/228 63/103/226 
f 66/106/231 59/99/229 58/98/232 65/105/230 
f 65/105/235 58/98/233 61/101/236 67/107/234 
f 67/107/239 61/101/237 63/103/240 68/108/238 
f 70/110/243 66/106/241 65/105/244 69/109/242 
f 69/109/247 65/105/245 67/107/248 71/111/246 
f 71/111/251 67/107/249 68/108/252 72/112/250 
f 74/115/255 72/113/253 68/116/256 73/114/254 
f 73/114/259 68/116/257 63/118/260 75/117/258 
f 75/117/263 63/118/261 64/120/264 76/119/262 
f 78/122/267 74/115/265 73/114/268 77/121/266 
f 77/121/271 73/114/269 75/117/272 79/123/270 
f 79/123/275 75/117/273 76/119/276 80/124/274 
f 82/126/279 78/122/277 77/121/280 81/125/278 
f 81/125/283 77/121/281 79/123/284 83/127/282 
f 83/127/287 79/123/285 80/124/288 84/128/286 
f 76/131/291 64/129/289 62/132/292 85/130/290 
f 85/130/295 62/132/293 60/134/296 86/133/294 
f 86/133/299 60/134/297 57/136/300 87/135/298 
f 80/138/303 76/131/301 85/130/304 88/137/302 
f 88/137/307 85/130/305 86/133/308 89/139/306 
f 89/139/311 86/133/309 87/135/312 90/140/310 
f 84/142/315 80/138/313 88/137/316 91/141/314 
f 91/141/319 88/137/317 89/139/320 92/143/318 
f 92/143/323 89/139/321 90/140/324 93/144/322 
f 95/147/327 70/145/325 69/148/328 94/146/326 
f 94/146/331 69/148/329 71/150/332 96/149/330 
f 96/149/335 71/150/333 72/152/336 74/151/334 
f 98/154/339 95/147/337 94/146/340 97/153/338 
f 97/153/343 94/146/341 96/149/344 99/155/342 
f 99/155/347 96/149/345 74/151/348 78/156/346 
f 101/158/351 98/154/349 97/153/352 100/157/350 
f 100/157/355 97/153/353 99/155/356 102/159/354 
f 102/159/359 99/155/357 78/156/360 82/160/358 
f 87/163/363 57/161/361 59/164/364 103/162/362 
f 103/162/367 59/164/365 66/166/368 104/165/366 
f 104/165/371 66/166/369 70/168/372 95/167/370 
f 90/170/375 87/163/373 103/162/376 105/169/374 
f 105/169/379 103/162/377 104/165/380 106/171/378 
f 106/171/383 104/165/381 95/167/384 98/172/382 
f 93/174/387 90/170/385 105/169/388 107/173/386 
f 107/173/391 105/169/389 106/171/392 108/175/390 
f 108/175/395 106/171/393 98/172/396 101/176/394 
f 83/179/399 84/177/397 91/180/400 109/178/398 
f 109/178/403 91/180/401 92/182/404 110/181/402 
f 110/181/407 92/182/405 93/184/408 107/183/406 
f 81/186/411 83/179/409 109/178/412 111/185/410 
f 111/185/415 109/178/413 110/181/416 112/187/414 
f 112/187/419 110/181/417 107/183/420 108/188/418 
f 82/190/423 81/186/421 111/185/424 102/189/422 
f 102/189/427 111/185/425 112/187/428 100/191/426 
f 100/191/431 112/187/429 108/188/432 101/192/430 
